<svg viewBox="0 -2 1204 177" preserveAspectRatio="xMidYMid slice"  fill="none" xmlns="http://www.w3.org/2000/svg">
<path fill-rule="evenodd" clip-rule="evenodd" d="M272 24L308 45C346.292 67.975 438.167 102.541 514.75 120.921C591.333 139.301 667.917 130.111 744.5 97.9457C821.083 65.7807 897.667 10.6407 974.25 1.45072C1050.83 -7.73928 1127.42 29.0207 1165.71 47.4007L1204 65.7807V176.061H1165.71C1127.42 176.061 1050.83 176.061 974.25 176.061C897.667 176.061 821.083 176.061 744.5 176.061C667.917 176.061 591.333 176.061 514.75 176.061C438.167 176.061 361.583 176.061 323.292 176.061H285L272 24Z" fill="#000000"/>
<path fill-rule="evenodd" clip-rule="evenodd" d="M936 12L889.5 40C851.208 62.975 765.833 102.541 689.25 120.921C612.667 139.301 536.083 130.111 459.5 97.9457C382.917 65.7807 306.333 10.6407 229.75 1.45072C153.167 -7.73928 76.5834 29.0207 38.2917 47.4007L0 65.7807V176.061H38.2917C76.5834 176.061 153.167 176.061 229.75 176.061C306.333 176.061 382.917 176.061 459.5 176.061C536.083 176.061 612.667 176.061 689.25 176.061C765.833 176.061 842.417 176.061 880.708 176.061H919L936 12Z" fill="#000000"/>
</svg>
