<svg preserveAspectRatio="xMidYMid slice" width="260" height="1666" viewBox="0 0 260 1666" fill="none" xmlns="http://www.w3.org/2000/svg">
<path fill-rule="evenodd" clip-rule="evenodd" d="M151.193 1665.21L115.195 1615.21C79.1961 1565.21 7.19864 1465.21 1.20123 1365.21C-4.79619 1265.21 55.2064 1165.21 91.209 1065.21C127.212 965.209 139.214 865.209 127.217 765.209C115.219 665.209 79.2219 565.208 61.2232 515.207L43.2245 465.207L259.225 465.212L259.223 515.212C259.222 565.212 259.219 665.212 259.217 765.212C259.214 865.212 259.212 965.212 259.209 1065.21C259.206 1165.21 259.204 1265.21 259.201 1365.21C259.199 1465.21 259.196 1565.21 259.195 1615.21L259.193 1665.21L151.193 1665.21Z" fill="black"/>
<path fill-rule="evenodd" clip-rule="evenodd" d="M151.418 0.00279218L115.419 50.0037C79.4205 100.005 7.42313 200.007 1.42572 300.007C-4.5717 400.007 55.4309 500.005 91.4335 600.004C127.436 700.003 139.439 800.003 127.441 900.003C115.444 1000 79.4464 1100 61.4477 1150.01L43.449 1200.01L259.449 1200L259.448 1150C259.446 1100 259.444 1000 259.441 900C259.439 800 259.436 700 259.433 600C259.431 500 259.428 400 259.426 300C259.423 200 259.421 100 259.419 50L259.418 0L151.418 0.00279218Z" fill="black"/>
</svg>
